<?xml version="1.0" encoding="UTF-8"?>
<svg xmlns="http://www.w3.org/2000/svg" xmlns:xlink="http://www.w3.org/1999/xlink" width="3003" height="2628" viewBox="1060 440 1003 1328">
<path fill-rule="nonzero" fill="transparent" fill-opacity="1" d="M 1.042969 0 C 0.765625 0 0.5 0.109375 0.304688 0.308594 C 0.109375 0.5 0 0.769531 0 1.039062 L 0 2626.042969 C 0 2626.617188 0.46875 2627.085938 1.042969 2627.085938 L 3001.039062 2627.085938 C 3001.320312 2627.085938 3001.589844 2626.976562 3001.78125 2626.78125 C 3001.980469 2626.585938 3002.089844 2626.320312 3002.089844 2626.042969 L 3002.089844 1.039062 C 3002.089844 0.46875 3001.621094 0 3001.039062 0 Z M 1.042969 0 "/>
<path fill-rule="nonzero" fill="rgb(63.867188%, 4.315186%, 0%)" fill-opacity="1" d="M 2305.300781 1276.25 L 1093.058594 1432.371094 L 1204.421875 1120.121094 L 2015.929688 1120.121094 Z M 2305.300781 1276.25 "/>
<path fill-rule="nonzero" fill="rgb(99.609375%, 6.665039%, 0%)" fill-opacity="1" d="M 2305.300781 1276.25 L 825.496094 1262.949219 L 1052.621094 695.171875 L 2155.589844 863.269531 Z M 2305.300781 1276.25 "/>
<path fill-rule="nonzero" fill="rgb(99.609375%, 6.665039%, 0%)" fill-opacity="1" d="M 1093.058594 1432.371094 L 1916.429688 1432.378906 L 1884.050781 1330.5 Z M 1093.058594 1432.371094 "/>
<path fill-rule="nonzero" fill="rgb(63.867188%, 4.315186%, 0%)" fill-opacity="1" d="M 1916.429688 1432.378906 L 1440.878906 1757.949219 L 1643.488281 1432.378906 Z M 1916.429688 1432.378906 "/>
<!-- <path fill-rule="nonzero" fill="rgb(99.609375%, 6.665039%, 0%)" fill-opacity="1" d="M 908.503906 2167.605469 C 844.3125 2142.457031 821.097656 2102.285156 827.5625 2030.53125 C 820.210938 2036.476562 813.09375 2042.027344 806.785156 2046.84375 C 736.542969 2100.503906 823.746094 2217.210938 884.398438 2184.117188 C 886.035156 2183.21875 888.425781 2185.554688 887.457031 2186.234375 C 894.71875 2192.289062 918.675781 2239.316406 927.941406 2282.457031 C 940.421875 2340.511719 1042.820312 2283.546875 1014.21875 2250.945312 C 985.316406 2218.023438 923.050781 2173.308594 908.503906 2167.605469 M 798.886719 2137.589844 C 790.070312 2124.117188 786.117188 2105.148438 789.128906 2089.40625 C 792.394531 2072.324219 795.546875 2069.15625 807.035156 2058.261719 C 798.441406 2079.53125 796.144531 2089.730469 798.546875 2112.917969 C 799.757812 2124.558594 803.597656 2135.648438 806.804688 2146.839844 Z M 798.886719 2137.589844 "/> -->
<!-- <path fill-rule="nonzero" fill="rgb(13.719177%, 12.156677%, 12.547302%)" fill-opacity="1" d="M 1185.550781 1908.507812 C 1167.601562 1875 1143.488281 1839.558594 1115.25 1813.84375 C 1095.25 1795.613281 1063.640625 1774.390625 1036.019531 1789.199219 C 1028.230469 1793.367188 982.640625 1893.683594 935.746094 1936.84375 C 916.101562 1954.925781 892.828125 1973.4375 874.957031 1987.089844 C 832.460938 2019.546875 846.496094 2076.699219 867.214844 2111.082031 C 893.617188 2154.894531 938.59375 2170.894531 974.757812 2151.160156 C 994.75 2140.25 1025.5 2125.648438 1066.148438 2112.664062 C 1117.621094 2096.21875 1195.769531 2102.464844 1201.96875 2099.140625 C 1229.589844 2084.34375 1229.449219 2046.265625 1225.371094 2019.496094 C 1219.621094 1981.738281 1203.480469 1942.015625 1185.550781 1908.507812 Z M 1192.28125 2081.046875 C 1170.398438 2092.777344 1129.980469 2061.71875 1093.839844 2008.695312 L 1132.691406 1984.679688 C 1144.691406 1977.265625 1148.449219 1961.367188 1141.039062 1949.363281 L 1126.628906 1926.019531 C 1119.210938 1914.015625 1103.320312 1910.265625 1091.320312 1917.675781 L 1055.710938 1939.683594 C 1027.738281 1875.855469 1022.570312 1819.6875 1045.710938 1807.292969 C 1072.46875 1792.949219 1126.980469 1842.605469 1167.449219 1918.199219 C 1207.929688 1993.796875 1219.039062 2066.699219 1192.28125 2081.046875 Z M 1073.019531 1938.195312 C 1097.78125 1922.449219 1118.601562 1905.550781 1128.910156 1949.550781 C 1104.300781 1922.648438 1107.660156 1926.96875 1073.019531 1938.195312 Z M 925.121094 1990.230469 C 910.859375 2003.152344 888.242188 2016.664062 882.59375 2034.152344 C 872.367188 2065.792969 887.929688 2093.890625 897.761719 2121.988281 C 884.644531 2110.65625 878.242188 2099.933594 872.152344 2083.671875 C 862.96875 2059.144531 860.417969 2027.382812 878.941406 2006.433594 C 913.308594 1967.566406 953.597656 1948.632812 987.660156 1902.679688 C 995.503906 1892.105469 1001.640625 1880.308594 1010.101562 1870.246094 C 1006.160156 1913.730469 956.03125 1962.226562 925.121094 1990.230469 Z M 925.121094 1990.230469 "/> -->
<!-- <path fill-rule="nonzero" fill="rgb(63.867188%, 4.315186%, 0%)" fill-opacity="1" d="M 1083.28125 386.609375 L 1198.429688 363.480469 L 1075.960938 609.179688 Z M 1083.28125 386.609375 "/> -->
<!-- <path fill-rule="nonzero" fill="rgb(0%, 0%, 0%)" fill-opacity="1" d="M 807.011719 528.320312 L 872.375 444.558594 L 992.261719 645.328125 Z M 807.011719 528.320312 "/> -->
<!-- <path fill-rule="nonzero" fill="rgb(99.609375%, 6.665039%, 0%)" fill-opacity="1" d="M 757.71875 762.53125 L 781.589844 689.691406 L 939.523438 704.230469 Z M 757.71875 762.53125 "/> -->
<!-- <path fill-rule="nonzero" fill="rgb(63.867188%, 4.315186%, 0%)" fill-opacity="1" d="M 2473.390625 1073.101562 L 2528.769531 1115.761719 L 2370.621094 1156.789062 Z M 2473.390625 1073.101562 "/> -->
<!-- <path fill-rule="nonzero" fill="rgb(0%, 0%, 0%)" fill-opacity="1" d="M 2155.089844 603.238281 L 2250.179688 653.019531 L 2072.390625 808.570312 Z M 2155.089844 603.238281 "/> -->
<!-- <path fill-rule="nonzero" fill="rgb(99.609375%, 6.665039%, 0%)" fill-opacity="1" d="M 1792.480469 621.089844 L 1825.640625 671.839844 L 1738.570312 762.128906 Z M 1792.480469 621.089844 "/> -->
<!-- <path fill-rule="nonzero" fill="rgb(0%, 0%, 0%)" fill-opacity="1" d="M 1454.191406 1873.84375 L 1474.441406 1971.273438 L 1258.390625 1935.324219 Z M 1454.191406 1873.84375 "/> -->
<!-- <path fill-rule="nonzero" fill="rgb(99.609375%, 6.665039%, 0%)" fill-opacity="1" d="M 1300.019531 1681.617188 L 1348.601562 1756.25 L 1220.488281 1888.660156 Z M 1300.019531 1681.617188 "/> -->
<!-- <path fill-rule="nonzero" fill="rgb(0%, 0%, 0%)" fill-opacity="1" d="M 2087.921875 1623.109375 L 2045.199219 1721.683594 L 1924.53125 1501.449219 Z M 2087.921875 1623.109375 "/> -->
<!-- <path fill-rule="nonzero" fill="rgb(0%, 0%, 0%)" fill-opacity="1" d="M 873.980469 1567.078125 L 776.335938 1504.78125 L 981.855469 1353.949219 Z M 873.980469 1567.078125 "/> -->
<!-- <path fill-rule="nonzero" fill="rgb(0%, 0%, 0%)" fill-opacity="1" d="M 1418.121094 460.269531 L 1489.171875 521.699219 L 1398.058594 693.351562 Z M 1418.121094 460.269531 "/> -->
<!-- <path fill-rule="nonzero" fill="rgb(99.609375%, 6.665039%, 0%)" fill-opacity="1" d="M 1894.859375 1997.835938 L 1840.039062 2048.992188 L 1824.25 1874.433594 Z M 1894.859375 1997.835938 "/> -->
<path fill-rule="nonzero" fill="rgb(99.609375%, 99.609375%, 99.609375%)" fill-opacity="1" d="M 2001.789062 892.980469 L 2080.03125 1091.371094 L 2141.070312 1095.410156 L 2079.5 903.929688 Z M 1262.300781 831.511719 C 1270.261719 832.53125 1275.109375 835.109375 1276.851562 839.238281 C 1278.421875 843.261719 1277.570312 852.160156 1274.320312 865.960938 L 1237.601562 1021.378906 C 1232.191406 1044.269531 1227.28125 1058.761719 1222.871094 1064.859375 C 1218.378906 1071.058594 1210.789062 1073.859375 1200.109375 1073.28125 C 1189.570312 1072.710938 1183.53125 1069.550781 1182 1063.800781 C 1180.71875 1058.121094 1183.179688 1043.808594 1189.378906 1020.890625 L 1232.558594 861.03125 C 1236.710938 845.660156 1241.070312 836.660156 1245.660156 834 C 1249.96875 831.480469 1255.511719 830.640625 1262.300781 831.511719 Z M 1723.859375 853.839844 L 1759.769531 1157.261719 L 1869.480469 1161.148438 L 1814.070312 866.550781 Z M 1841.808594 870.449219 L 1852.140625 919.839844 L 1911.058594 927.101562 L 1883.289062 1111.460938 L 1893.570312 1162.011719 L 2071.910156 1168.339844 L 2051.46875 1103.601562 L 1984.601562 1099.539062 L 1999.160156 937.96875 L 1984.171875 890.5 Z M 2078.148438 1105.210938 L 2099.5 1169.320312 L 2176.421875 1172.039062 L 2152.660156 1109.738281 Z M 1451.039062 815.421875 L 1433.238281 991.140625 C 1429.191406 1031.121094 1427.570312 1057.800781 1428.378906 1071.191406 C 1429.230469 1084.761719 1435.078125 1098.078125 1445.941406 1111.140625 C 1456.941406 1124.378906 1474.238281 1135.480469 1497.820312 1144.429688 C 1521.21875 1153.320312 1548.070312 1158.261719 1578.351562 1159.25 C 1604.941406 1160.121094 1627.710938 1157.558594 1646.640625 1151.558594 C 1664.808594 1145.910156 1679.019531 1137.199219 1689.28125 1125.441406 C 1699.191406 1114.230469 1704.769531 1103.191406 1705.980469 1092.308594 C 1707.179688 1081.820312 1706.640625 1063.871094 1704.359375 1038.449219 L 1687.339844 848.699219 L 1588.558594 834.789062 L 1590.988281 1053.359375 C 1591.179688 1071.050781 1590.140625 1082.308594 1587.859375 1087.109375 C 1585.75 1091.839844 1580.75 1093.980469 1572.859375 1093.558594 C 1565.910156 1093.179688 1561.269531 1090.628906 1558.929688 1085.921875 C 1556.789062 1081.410156 1555.828125 1071.289062 1556.03125 1055.558594 L 1558.910156 830.609375 Z M 1268.511719 783.890625 C 1245.191406 780.570312 1223.101562 779.691406 1202.238281 781.261719 C 1180.769531 782.878906 1161.960938 787.25 1145.820312 794.359375 C 1129.171875 801.609375 1116.609375 810.238281 1108.140625 820.269531 C 1099.679688 830.5 1091.308594 846.359375 1083.011719 867.839844 L 1040.941406 976.800781 C 1027.191406 1012.441406 1021.199219 1040.039062 1022.980469 1059.589844 C 1024.890625 1079.609375 1037.898438 1096.78125 1062.011719 1111.109375 C 1086.160156 1125.46875 1117.460938 1133.710938 1155.910156 1135.839844 C 1151.25 1153 1150.308594 1165.019531 1153.109375 1171.890625 C 1155.660156 1178.808594 1162.871094 1184.179688 1174.730469 1187.980469 C 1186.589844 1191.570312 1207.769531 1193.648438 1238.261719 1194.230469 L 1358.539062 1196.5 L 1365.71875 1143.28125 L 1313.53125 1141.429688 C 1295.710938 1140.800781 1284.570312 1139.140625 1280.109375 1136.460938 C 1275.910156 1133.789062 1274.371094 1127.679688 1275.5 1118.128906 C 1300.171875 1115 1320.21875 1109.859375 1335.660156 1102.691406 C 1350.421875 1095.890625 1361.070312 1086.359375 1367.609375 1074.121094 C 1373.949219 1062.230469 1379.328125 1040 1383.730469 1007.441406 L 1398.101562 901.140625 C 1400.679688 882.011719 1401 867.519531 1399.058594 857.691406 C 1397.320312 848.179688 1391.910156 838.558594 1382.820312 828.808594 C 1374.011719 819.191406 1359.609375 810.28125 1339.609375 802.089844 C 1319.671875 793.871094 1295.96875 787.808594 1268.511719 783.890625 Z M 1268.511719 783.890625 "/>
</svg>
